<?xml version="1.0" encoding="UTF-8" ?>
<!DOCTYPE svg PUBLIC "-//W3C//DTD SVG 1.1//EN" "http://www.w3.org/Graphics/SVG/1.1/DTD/svg11.dtd">
<svg width="430pt" height="343pt" viewBox="0 0 430 343" version="1.1" xmlns="http://www.w3.org/2000/svg">
<g id="#ffffffff">
</g>
<g id="#4e4e73ff">
<path fill="#4e4e73" opacity="1.00" d=" M 62.78 36.79 C 68.54 32.70 75.45 28.35 82.83 30.26 C 89.17 33.19 92.61 39.79 95.13 45.96 C 97.34 51.87 100.28 57.70 100.38 64.15 C 101.92 74.18 101.88 84.37 101.71 94.50 C 99.97 133.67 96.68 172.76 93.22 211.81 C 92.50 219.20 92.93 226.65 92.54 234.06 C 92.13 240.15 93.37 246.36 96.25 251.75 C 98.28 255.41 103.06 258.14 107.15 256.24 C 115.60 252.58 121.56 245.23 127.91 238.85 C 131.23 235.12 134.95 231.69 137.60 227.42 C 142.64 224.75 148.49 225.98 153.90 225.06 C 159.50 224.17 163.01 218.13 168.96 218.35 C 171.60 217.71 172.73 220.53 173.99 222.21 C 165.08 224.63 157.15 229.80 148.08 231.63 C 145.08 232.50 141.37 231.37 138.98 233.81 C 130.38 240.88 123.72 250.09 114.65 256.62 C 110.93 258.98 106.74 262.11 102.07 260.58 C 94.90 258.76 90.82 251.64 88.87 245.02 C 85.79 225.04 90.39 205.04 91.58 185.09 C 92.60 168.03 94.67 151.05 95.40 133.97 C 96.73 113.35 96.52 92.65 95.62 72.01 C 95.40 69.15 94.24 66.47 93.21 63.83 C 92.78 62.73 92.46 61.60 92.26 60.44 L 91.58 60.42 C 91.34 55.84 88.28 51.94 88.39 47.32 L 87.69 47.68 C 86.29 43.58 83.00 40.49 79.17 38.63 C 78.25 38.58 76.40 38.48 75.47 38.43 L 75.52 39.27 C 72.52 40.84 69.92 43.58 66.33 43.62 L 66.57 44.19 C 63.29 46.27 60.74 49.44 56.92 50.64 C 52.32 55.31 49.43 61.47 47.72 67.76 C 45.51 70.74 43.29 73.76 42.23 77.38 C 40.65 82.59 37.30 87.17 36.65 92.66 C 36.04 96.63 35.53 100.73 33.39 104.23 C 33.78 106.55 33.98 108.95 33.26 111.24 C 31.86 115.41 33.06 119.81 32.44 124.09 C 30.98 134.83 31.89 145.85 29.19 156.43 L 30.80 156.45 C 30.71 168.57 30.50 180.68 30.86 192.80 C 33.12 194.40 33.24 197.42 33.21 199.94 C 32.96 202.76 32.91 205.72 31.55 208.29 C 32.08 208.74 33.15 209.63 33.68 210.08 C 33.44 210.78 32.97 212.19 32.73 212.89 C 33.94 215.73 33.68 218.82 33.93 221.82 C 34.30 222.09 35.04 222.64 35.41 222.91 C 34.01 225.59 33.82 228.55 35.58 231.10 C 35.20 232.90 35.19 234.72 35.59 236.52 L 34.42 236.35 C 34.04 241.06 36.12 245.42 36.44 250.04 C 36.09 254.39 38.39 258.44 37.61 262.81 C 42.04 267.97 39.41 275.30 41.05 281.36 C 41.78 288.30 42.46 295.25 43.79 302.12 C 45.12 308.28 44.27 314.66 45.57 320.83 C 46.14 324.70 47.28 328.89 45.45 332.61 C 44.51 334.61 42.12 334.91 40.30 335.71 C 41.32 326.40 38.22 317.23 39.21 307.91 C 38.46 299.64 37.92 291.32 37.42 283.01 C 37.33 280.13 35.63 277.68 35.13 274.91 C 34.84 272.40 36.57 270.38 37.70 268.34 C 37.01 268.20 35.63 267.91 34.94 267.76 C 35.16 262.31 33.60 256.99 33.25 251.57 C 32.15 248.41 32.46 245.20 33.28 242.01 C 30.27 233.76 30.12 224.82 30.46 216.14 C 28.59 207.27 29.47 198.12 28.08 189.19 C 26.51 183.98 27.85 178.43 27.30 173.08 C 26.38 162.76 26.00 152.35 27.10 142.03 C 27.64 128.32 27.96 114.55 30.07 100.97 C 34.44 80.69 41.98 60.85 53.77 43.69 C 55.72 40.21 59.80 39.12 62.78 36.79 Z" />
<path fill="#4e4e73" opacity="1.00" d=" M 327.05 54.00 C 330.18 54.03 332.52 56.28 334.64 58.31 C 337.84 61.54 340.31 65.39 342.77 69.18 C 344.69 72.21 347.52 74.47 349.90 77.11 C 357.89 85.64 367.96 91.73 377.05 98.96 C 382.14 102.93 387.51 106.52 392.82 110.20 C 398.36 114.00 401.85 120.02 407.48 123.73 C 410.00 125.29 411.10 128.11 411.70 130.89 C 408.47 129.01 407.24 124.47 402.93 124.12 C 400.72 119.38 395.41 117.65 392.28 113.69 C 385.28 109.96 379.14 104.91 372.74 100.26 C 369.23 97.59 364.94 96.19 361.48 93.46 C 357.99 90.72 354.88 87.54 351.45 84.72 C 341.71 78.34 337.02 67.11 329.18 58.86 C 327.67 57.66 327.28 55.80 327.05 54.00 Z" />
<path fill="#4e4e73" opacity="1.00" d=" M 305.91 60.78 C 306.78 60.81 308.53 60.89 309.40 60.92 C 311.15 73.79 313.63 86.84 312.37 99.86 C 316.81 93.33 325.40 92.19 330.64 86.55 C 334.91 84.09 339.41 81.16 344.51 81.05 C 342.08 83.31 339.16 84.88 336.24 86.38 C 333.99 87.49 333.15 90.04 331.91 92.04 C 327.36 94.46 320.97 95.29 318.81 100.60 C 321.74 101.53 324.64 102.56 327.55 103.58 C 329.06 106.33 329.82 109.83 326.73 111.85 C 326.33 110.41 325.94 108.96 325.56 107.52 C 323.88 106.67 322.09 106.06 320.20 106.08 C 318.17 104.48 316.23 102.71 313.87 101.61 C 314.94 115.27 319.36 128.45 320.12 142.15 C 320.15 144.40 322.77 145.25 323.30 147.35 C 323.30 146.85 323.31 145.84 323.32 145.33 C 328.06 143.21 331.81 139.49 336.24 136.83 C 333.31 134.99 328.96 137.68 326.76 134.52 C 333.11 132.01 340.67 125.57 347.26 131.01 C 341.77 139.41 332.00 143.16 324.51 149.39 C 323.45 153.51 323.31 157.80 324.21 161.97 C 328.30 184.35 332.76 206.71 339.11 228.57 C 346.39 227.56 350.47 221.06 356.12 217.19 C 360.41 214.23 364.45 210.77 369.43 208.99 C 369.81 207.65 370.64 206.53 371.82 205.79 C 381.32 198.77 390.31 191.05 398.82 182.86 C 401.25 180.50 402.86 176.60 406.60 176.18 C 406.53 175.78 406.40 174.97 406.33 174.57 C 406.92 174.57 408.11 174.58 408.70 174.59 C 408.63 175.72 408.56 176.86 408.48 178.00 C 403.81 182.48 400.01 187.81 395.11 192.06 C 388.47 197.78 381.86 203.52 375.74 209.79 C 374.26 211.79 371.47 210.15 369.72 211.58 C 366.48 214.07 362.77 215.91 359.69 218.62 C 355.55 222.18 351.94 226.39 347.31 229.36 C 344.45 231.27 341.01 233.38 340.53 237.12 C 343.62 251.08 350.09 263.95 354.54 277.47 C 354.83 277.41 355.41 277.29 355.70 277.24 C 355.63 279.45 355.89 281.67 356.40 283.83 C 356.36 281.33 356.69 278.73 355.77 276.35 C 356.16 270.07 353.89 264.03 354.33 257.78 C 355.76 258.69 355.84 260.47 356.29 261.95 C 357.52 267.34 359.58 272.59 359.77 278.17 C 359.99 282.65 361.17 287.08 360.75 291.59 C 357.44 291.94 354.20 290.41 352.84 287.31 C 347.00 274.15 341.95 260.64 337.91 246.83 C 337.28 244.14 337.07 241.30 335.66 238.86 C 330.34 241.62 326.02 245.89 321.07 249.22 C 314.49 254.56 307.60 259.54 301.44 265.37 C 299.20 267.07 296.23 267.29 293.96 268.93 C 291.61 270.58 289.49 272.55 287.04 274.05 C 284.95 275.37 282.03 275.76 281.19 278.45 C 279.49 278.73 277.80 279.07 276.13 279.45 L 276.81 280.34 C 273.19 281.56 270.82 284.92 267.05 285.86 C 265.37 288.77 261.56 288.48 259.00 290.21 C 245.02 298.15 230.11 304.19 215.22 310.17 C 203.06 314.87 190.19 319.13 176.97 317.96 C 172.73 317.79 168.23 315.57 166.44 311.58 C 164.87 304.51 166.81 297.11 169.81 290.69 C 173.59 283.50 178.27 276.82 183.18 270.36 C 188.30 263.05 193.41 255.48 200.57 249.97 C 200.85 246.72 198.88 243.51 200.18 240.34 C 200.93 237.91 201.73 235.50 202.22 233.01 C 200.58 233.42 198.94 233.81 197.28 234.07 C 197.58 230.26 198.76 224.24 203.88 225.10 C 206.31 220.42 208.16 215.36 208.59 210.07 C 209.67 195.02 209.98 179.39 216.14 165.36 C 217.26 160.61 217.99 153.46 224.18 152.96 C 223.96 171.33 215.24 188.53 215.72 206.93 C 220.67 206.34 225.58 204.75 229.43 201.48 C 236.39 195.72 241.31 187.94 248.17 182.06 C 256.42 183.81 265.06 182.78 272.95 179.92 C 277.38 178.27 280.57 174.58 284.60 172.22 C 284.47 171.33 284.35 170.43 284.22 169.54 C 281.16 170.38 278.10 171.36 274.92 171.62 C 272.08 173.40 268.18 174.95 265.06 173.00 C 262.40 170.58 263.73 166.54 264.70 163.62 C 268.56 154.34 278.15 149.21 287.32 146.47 C 283.46 153.20 275.47 155.79 270.74 161.72 C 269.11 163.71 268.35 166.20 268.00 168.72 C 281.26 167.91 293.62 162.50 305.09 156.14 C 309.26 153.64 316.32 152.81 316.51 146.73 C 316.37 141.02 313.97 135.58 314.10 129.81 C 313.04 129.64 311.98 129.47 310.93 129.31 C 310.03 113.46 307.75 97.72 306.71 81.88 C 306.48 78.18 304.55 74.84 304.35 71.13 C 304.05 67.60 304.89 64.12 305.91 60.78 M 306.24 160.14 C 303.46 161.07 300.84 162.57 299.13 165.00 C 292.96 173.06 284.43 179.02 275.35 183.37 C 268.93 188.48 260.03 188.67 252.43 186.53 C 251.00 186.11 249.15 185.64 248.14 187.12 C 244.55 190.89 240.69 194.39 237.36 198.40 C 232.12 204.37 226.32 210.88 218.06 212.27 C 216.19 211.85 214.25 210.78 212.31 211.27 C 208.88 217.44 208.62 224.72 206.59 231.38 C 205.66 236.33 203.30 240.82 202.02 245.66 C 202.53 245.67 203.56 245.67 204.07 245.67 C 207.64 240.45 212.14 235.92 217.02 231.93 C 219.22 230.16 220.42 227.05 223.57 226.74 C 222.30 228.78 221.08 230.84 220.02 232.99 C 214.69 235.51 211.91 240.94 207.98 245.02 C 197.92 255.16 190.46 267.45 181.68 278.64 C 178.38 282.29 178.07 287.49 175.59 291.62 C 172.45 297.26 169.40 304.37 172.96 310.56 C 184.99 312.63 196.92 309.00 208.16 305.06 C 226.98 298.24 245.60 290.68 263.23 281.16 C 284.46 267.55 305.96 254.30 326.09 239.08 C 328.47 237.01 332.09 236.03 333.46 233.00 C 328.84 211.59 323.63 190.28 319.63 168.75 C 319.57 163.70 318.46 158.78 317.17 153.92 C 312.92 154.89 310.35 158.87 306.24 160.14 M 216.89 176.38 C 215.51 179.83 214.03 183.61 215.18 187.34 C 215.47 184.17 215.93 181.03 216.53 177.91 C 218.36 174.85 218.50 171.19 219.53 167.84 C 217.86 170.42 218.05 173.62 216.89 176.38 Z" />
</g>
</svg>
