<?xml version="1.0" encoding="UTF-8"?>
<!DOCTYPE svg PUBLIC "-//W3C//DTD SVG 1.1//EN" "http://www.w3.org/Graphics/SVG/1.1/DTD/svg11.dtd">
<!-- Creator: CorelDRAW 2019 (64-Bit) -->
<svg xmlns="http://www.w3.org/2000/svg" xml:space="preserve" width="142.398mm" height="38.4528mm" version="1.1" style="shape-rendering:geometricPrecision; text-rendering:geometricPrecision; image-rendering:optimizeQuality; fill-rule:evenodd; clip-rule:evenodd"
viewBox="0 0 9261.36 2500.91"
 xmlns:xlink="http://www.w3.org/1999/xlink"
 xmlns:xodm="http://www.corel.com/coreldraw/odm/2003">
 <defs>
  <style type="text/css">
   <![CDATA[
    .fil1 {fill:#201E1E}
    .fil0 {fill:#201E1E;fill-rule:nonzero}
   ]]>
  </style>
 </defs>
 <g id="Capa_x0020_1">
  <metadata id="CorelCorpID_0Corel-Layer"/>
  <g id="_1105095984">
   <path class="fil0" d="M3272.98 1120.12l0 -948.85 640.08 0 0 111.32 -514.18 0 0 295.52 445.27 0 0 111.32 -445.27 0 0 430.69 -125.89 0zm1237.53 0l0 -102.26c-53.46,77.96 -125.89,116.84 -217.56,116.84 -40.41,0 -78.18,-7.73 -113.3,-23.19 -35.11,-15.69 -61.18,-35.12 -78.18,-58.53 -17.01,-23.63 -28.94,-52.34 -35.78,-86.36 -4.64,-22.97 -7.07,-59.19 -7.07,-108.67l0 -425.61 116.62 0 0 380.55c0,60.74 2.43,101.82 7.07,122.81 7.28,30.7 22.75,54.55 46.6,72 23.63,17.44 52.79,26.28 87.68,26.28 34.9,0 67.59,-8.84 98.06,-26.72 30.48,-17.89 52.13,-42.41 64.93,-73.11 12.59,-30.7 19,-75.54 19,-134.06l0 -367.75 116.61 0 0 687.78 -104.69 0zm287.79 0l0 -687.78 104.69 0 0 97.62c50.36,-74.87 123.24,-112.2 218.44,-112.2 41.52,0 79.51,7.51 114.19,22.31 34.67,14.8 60.74,34.45 77.96,58.53 17.23,24.08 29.38,52.79 36.23,85.92 4.19,21.64 6.41,59.41 6.41,113.3l0 422.3 -116.62 0 0 -417.88c0,-47.49 -4.42,-83.05 -13.47,-106.46 -9.06,-23.41 -25.18,-42.18 -48.15,-56.32 -22.97,-13.91 -50.13,-20.98 -81.06,-20.98 -49.47,0 -92.1,15.68 -128.1,47.27 -36.01,31.36 -53.89,91.22 -53.89,179.12l0 375.25 -116.62 0zm1180.98 0l0 -87.24c-43.51,67.81 -107.57,101.82 -192.16,101.82 -54.78,0 -105.13,-15.02 -150.86,-45.27 -45.94,-30.04 -81.5,-72.23 -106.9,-126.12 -25.18,-54.11 -37.77,-116.18 -37.77,-186.41 0,-68.47 11.49,-130.53 34.24,-186.41 22.97,-55.66 57.2,-98.51 102.92,-128.1 45.49,-29.82 96.74,-44.62 153.06,-44.62 41.52,0 78.4,8.83 110.65,26.28 32.25,17.45 58.53,40.42 78.85,68.47l0 -341.24 116.62 0 0 948.85 -108.67 0zm-368.41 -343.01c0,87.91 18.56,153.5 55.88,197.01 37.1,43.51 81.06,65.16 131.64,65.16 51.02,0 94.31,-20.76 130.09,-62.29 35.56,-41.52 53.45,-104.91 53.45,-190.17 0,-93.65 -18.11,-162.56 -54.55,-206.51 -36.22,-43.95 -81.06,-65.82 -134.28,-65.82 -51.91,0 -95.2,20.98 -130.09,63.17 -34.68,42.19 -52.13,108.67 -52.13,199.45zm1110.75 256.87c-43.29,36.88 -85.04,62.72 -125.01,77.96 -39.98,15.25 -82.83,22.75 -128.77,22.75 -75.54,0 -133.62,-18.33 -174.26,-55.22 -40.64,-36.66 -60.96,-83.7 -60.96,-140.91 0,-33.57 7.73,-64.27 22.97,-92.1 15.46,-27.83 35.56,-49.92 60.3,-66.7 24.96,-16.79 52.79,-29.59 83.93,-38.21 22.97,-5.96 57.64,-11.7 103.81,-17.44 94.08,-11.04 163.66,-24.52 208.05,-39.98 0.44,-15.9 0.66,-26.06 0.66,-30.26 0,-47.26 -11.04,-80.62 -33.13,-100.05 -29.81,-26.28 -74.21,-39.32 -132.96,-39.32 -55,0 -95.64,9.72 -121.7,28.94 -26.28,19.21 -45.5,53.23 -58.09,102.26l-113.97 -15.9c10.38,-48.81 27.39,-88.35 51.24,-118.38 23.86,-30.04 58.31,-53.01 103.37,-69.36 44.84,-16.12 97.18,-24.29 156.38,-24.29 58.75,0 106.68,6.85 143.56,20.76 36.67,13.91 63.84,31.14 81.06,52.12 17.23,20.99 29.38,47.49 36.45,79.52 3.75,19.88 5.74,55.66 5.74,107.12l0 154.61c0,108 2.43,176.25 7.28,205.18 4.64,28.94 14.36,56.54 28.49,83.05l-121.92 0c-11.7,-24.52 -19.21,-53.23 -22.52,-86.14zm-9.28 -258.42c-42.41,17.23 -106.01,31.8 -190.83,43.73 -48.15,6.85 -82.16,14.58 -102.04,23.19 -19.88,8.61 -35.12,21.2 -45.94,37.55 -10.82,16.57 -16.34,34.9 -16.34,55.22 0,30.7 11.71,56.54 35.34,77.08 23.63,20.54 58.09,30.92 103.37,30.92 44.84,0 84.81,-9.72 119.93,-29.38 34.9,-19.43 60.74,-46.16 77.08,-79.95 12.59,-26.28 18.77,-64.93 18.77,-115.96l0.66 -42.41zm746.32 92.76l113.97 15.9c-12.59,78.41 -44.4,139.59 -95.86,183.99 -51.46,44.39 -114.85,66.48 -189.72,66.48 -93.87,0 -169.41,-30.7 -226.39,-92.1 -57.21,-61.4 -85.7,-149.3 -85.7,-263.71 0,-74.22 12.37,-138.93 36.89,-194.59 24.51,-55.44 61.84,-97.18 112.2,-124.79 50.14,-27.83 104.69,-41.74 163.88,-41.74 74.43,0 135.61,18.77 182.88,56.54 47.49,37.77 77.97,91.44 91.22,160.79l-112.65 17.23c-10.82,-46.16 -29.81,-80.84 -57.42,-104.25 -27.39,-23.19 -60.52,-34.9 -99.39,-34.9 -58.75,0 -106.45,20.98 -143.34,62.95 -36.66,42.18 -55,108.45 -55,199.44 0,92.32 17.67,159.25 53.01,200.99 35.56,41.75 81.72,62.73 138.48,62.73 45.94,0 84.15,-13.92 114.63,-41.96 30.7,-27.83 50.14,-70.9 58.31,-128.99zm213.36 -564.53l0 -132.52 116.62 0 0 132.52 -116.62 0zm0 816.32l0 -687.78 116.62 0 0 687.78 -116.62 0zm250.68 -343.89c0,-127 35.34,-221.09 106.24,-282.27 58.97,-50.8 131.19,-76.2 216.23,-76.2 94.31,0 171.61,30.92 231.69,92.76 59.85,61.62 89.9,147.1 89.9,255.98 0,88.35 -13.25,157.7 -39.76,208.28 -26.5,50.57 -65.16,89.89 -115.96,117.94 -50.57,28.05 -106.01,41.96 -165.87,41.96 -96.3,0 -174.04,-30.7 -233.46,-92.32 -59.41,-61.62 -89.01,-150.41 -89.01,-266.14zm119.27 0.22c0,87.91 19.22,153.72 57.65,197.24 38.65,43.73 87.02,65.6 145.55,65.6 57.86,0 106.01,-21.87 144.67,-65.82 38.43,-43.95 57.65,-110.88 57.65,-200.77 0,-84.82 -19.44,-149.09 -58.09,-192.6 -38.65,-43.73 -86.8,-65.6 -144.22,-65.6 -58.53,0 -106.9,21.64 -145.55,65.16 -38.43,43.51 -57.65,109.11 -57.65,196.79zm106.02 -428.92l84.81 -181.55 153.72 0 -141.8 181.55 -96.74 0zm555.48 772.59l0 -687.78 104.69 0 0 97.62c50.36,-74.87 123.24,-112.2 218.44,-112.2 41.52,0 79.51,7.51 114.19,22.31 34.67,14.8 60.74,34.45 77.96,58.53 17.23,24.08 29.38,52.79 36.23,85.92 4.19,21.64 6.41,59.41 6.41,113.3l0 422.3 -116.62 0 0 -417.88c0,-47.49 -4.42,-83.05 -13.47,-106.46 -9.06,-23.41 -25.18,-42.18 -48.15,-56.32 -22.97,-13.91 -50.13,-20.98 -81.06,-20.98 -49.47,0 -92.1,15.68 -128.1,47.27 -36.01,31.36 -53.89,91.22 -53.89,179.12l0 375.25 -116.62 0zm-5085.26 1200.74l0 -837.53 -312.75 0 0 -111.32 751.4 0 0 111.32 -312.75 0 0 837.53 -125.89 0zm875.96 -222.63l120.59 15.9c-18.78,70.01 -53.89,124.57 -105.13,163.22 -51.24,38.65 -116.62,58.09 -196.35,58.09 -100.28,0 -179.79,-30.92 -238.54,-92.76 -58.75,-61.62 -88.13,-148.42 -88.13,-259.96 0,-115.29 29.6,-204.96 89.01,-268.58 59.41,-63.83 136.5,-95.63 231.24,-95.63 91.66,0 166.54,31.14 224.62,93.65 58.09,62.5 87.24,150.41 87.24,263.71 0,6.85 -0.22,17.23 -0.66,30.93l-512.19 0c4.42,75.31 25.62,133.18 64.05,173.16 38.21,39.98 86.14,60.08 143.34,60.08 42.63,0 79.07,-11.26 109.11,-33.79 30.26,-22.53 54.11,-58.53 71.78,-108zm-381.66 -186.86l382.99 0c-5.08,-57.86 -19.88,-101.15 -43.95,-130.09 -36.88,-44.84 -85.04,-67.37 -144.01,-67.37 -53.45,0 -98.29,17.89 -134.73,53.67 -36.22,35.78 -56.32,83.71 -60.3,143.79zm646.92 409.49l0 -948.85 116.62 0 0 948.85 -116.62 0zm766.19 -222.63l120.59 15.9c-18.78,70.01 -53.89,124.57 -105.13,163.22 -51.24,38.65 -116.62,58.09 -196.35,58.09 -100.28,0 -179.79,-30.92 -238.54,-92.76 -58.75,-61.62 -88.13,-148.42 -88.13,-259.96 0,-115.29 29.6,-204.96 89.01,-268.58 59.41,-63.83 136.5,-95.63 231.24,-95.63 91.66,0 166.54,31.14 224.62,93.65 58.09,62.5 87.24,150.41 87.24,263.71 0,6.85 -0.22,17.23 -0.66,30.93l-512.19 0c4.42,75.31 25.62,133.18 64.05,173.16 38.21,39.98 86.14,60.08 143.34,60.08 42.63,0 79.07,-11.26 109.11,-33.79 30.26,-22.53 54.11,-58.53 71.78,-108zm-381.66 -186.86l382.99 0c-5.08,-57.86 -19.88,-101.15 -43.95,-130.09 -36.88,-44.84 -85.04,-67.37 -144.01,-67.37 -53.45,0 -98.29,17.89 -134.73,53.67 -36.22,35.78 -56.32,83.71 -60.3,143.79zm677.4 409.49l0 -597.66 -103.37 0 0 -90.12 103.37 0 0 -72.89c0,-46.16 3.97,-80.39 12.15,-102.7 11.26,-30.03 30.7,-54.55 58.97,-73.32 28.05,-18.78 67.58,-28.05 118.38,-28.05 32.91,0 69.13,3.97 108.89,11.71l-17.45 102.04c-24.29,-4.19 -47.04,-6.41 -68.69,-6.41 -35.34,0 -60.3,7.51 -75.09,22.53 -14.58,15.02 -21.87,43.07 -21.87,84.15l0 62.94 133.84 0 0 90.12 -132.52 0 0 597.66 -116.61 0zm296.62 -343.89c0,-127 35.34,-221.09 106.24,-282.27 58.97,-50.8 131.19,-76.2 216.23,-76.2 94.31,0 171.61,30.92 231.69,92.76 59.85,61.62 89.9,147.1 89.9,255.98 0,88.35 -13.25,157.7 -39.76,208.28 -26.5,50.57 -65.16,89.89 -115.96,117.94 -50.57,28.05 -106.01,41.96 -165.87,41.96 -96.3,0 -174.04,-30.7 -233.46,-92.32 -59.41,-61.62 -89.01,-150.41 -89.01,-266.14zm119.27 0.22c0,87.91 19.22,153.72 57.65,197.24 38.65,43.73 87.02,65.6 145.55,65.6 57.86,0 106.01,-21.87 144.67,-65.82 38.43,-43.95 57.65,-110.88 57.65,-200.77 0,-84.82 -19.44,-149.09 -58.09,-192.6 -38.65,-43.73 -86.8,-65.6 -144.22,-65.6 -58.53,0 -106.9,21.64 -145.55,65.16 -38.43,43.51 -57.65,109.11 -57.65,196.79zm106.02 -428.92l84.81 -181.55 153.72 0 -141.8 181.55 -96.74 0zm555.48 772.59l0 -687.78 104.69 0 0 97.62c50.36,-74.87 123.24,-112.2 218.44,-112.2 41.52,0 79.51,7.51 114.19,22.31 34.67,14.8 60.74,34.45 77.96,58.53 17.23,24.08 29.38,52.79 36.23,85.92 4.19,21.64 6.41,59.41 6.41,113.3l0 422.3 -116.62 0 0 -417.88c0,-47.49 -4.42,-83.05 -13.47,-106.46 -9.06,-23.41 -25.18,-42.18 -48.15,-56.32 -22.97,-13.91 -50.13,-20.98 -81.06,-20.98 -49.47,0 -92.1,15.68 -128.1,47.27 -36.01,31.36 -53.89,91.22 -53.89,179.12l0 375.25 -116.62 0zm737.04 -816.32l0 -132.52 116.62 0 0 132.52 -116.62 0zm0 816.32l0 -687.78 116.62 0 0 687.78 -116.62 0zm743.66 -251.79l113.97 15.9c-12.59,78.41 -44.4,139.59 -95.86,183.99 -51.46,44.39 -114.85,66.48 -189.72,66.48 -93.87,0 -169.41,-30.7 -226.39,-92.1 -57.21,-61.4 -85.7,-149.3 -85.7,-263.71 0,-74.22 12.37,-138.93 36.89,-194.59 24.51,-55.44 61.84,-97.18 112.2,-124.79 50.14,-27.83 104.69,-41.74 163.88,-41.74 74.43,0 135.61,18.77 182.88,56.54 47.49,37.77 77.97,91.44 91.22,160.79l-112.65 17.23c-10.82,-46.16 -29.81,-80.84 -57.42,-104.25 -27.39,-23.19 -60.52,-34.9 -99.39,-34.9 -58.75,0 -106.45,20.98 -143.34,62.95 -36.66,42.18 -55,108.45 -55,199.44 0,92.32 17.67,159.25 53.01,200.99 35.56,41.75 81.72,62.73 138.48,62.73 45.94,0 84.15,-13.92 114.63,-41.96 30.7,-27.83 50.14,-70.9 58.31,-128.99zm662.61 165.65c-43.29,36.88 -85.04,62.72 -125.01,77.96 -39.98,15.25 -82.83,22.75 -128.77,22.75 -75.54,0 -133.62,-18.33 -174.26,-55.22 -40.64,-36.66 -60.96,-83.7 -60.96,-140.91 0,-33.57 7.73,-64.27 22.97,-92.1 15.46,-27.83 35.56,-49.92 60.3,-66.7 24.96,-16.79 52.79,-29.59 83.93,-38.21 22.97,-5.96 57.64,-11.7 103.81,-17.44 94.08,-11.04 163.66,-24.52 208.05,-39.98 0.44,-15.9 0.66,-26.06 0.66,-30.26 0,-47.26 -11.04,-80.62 -33.13,-100.05 -29.81,-26.28 -74.21,-39.32 -132.96,-39.32 -55,0 -95.64,9.72 -121.7,28.94 -26.28,19.21 -45.5,53.23 -58.09,102.26l-113.97 -15.9c10.38,-48.81 27.39,-88.35 51.24,-118.38 23.86,-30.04 58.31,-53.01 103.37,-69.36 44.84,-16.12 97.18,-24.29 156.38,-24.29 58.75,0 106.68,6.85 143.56,20.76 36.67,13.91 63.84,31.14 81.06,52.12 17.23,20.99 29.38,47.49 36.45,79.52 3.75,19.88 5.74,55.66 5.74,107.12l0 154.61c0,108 2.43,176.25 7.28,205.18 4.64,28.94 14.36,56.54 28.49,83.05l-121.92 0c-11.7,-24.52 -19.21,-53.23 -22.52,-86.14zm-9.28 -258.42c-42.41,17.23 -106.01,31.8 -190.83,43.73 -48.15,6.85 -82.16,14.58 -102.04,23.19 -19.88,8.61 -35.12,21.2 -45.94,37.55 -10.82,16.57 -16.34,34.9 -16.34,55.22 0,30.7 11.71,56.54 35.34,77.08 23.63,20.54 58.09,30.92 103.37,30.92 44.84,0 84.81,-9.72 119.93,-29.38 34.9,-19.43 60.74,-46.16 77.08,-79.95 12.59,-26.28 18.77,-64.93 18.77,-115.96l0.66 -42.41z"/>
   <path class="fil1" d="M1234.37 0c196.41,0 355.63,159.22 355.63,355.63 0,196.41 -159.22,355.63 -355.63,355.63 -196.41,0 -355.63,-159.22 -355.63,-355.63 0,-196.41 159.22,-355.63 355.63,-355.63z"/>
   <path class="fil1" d="M1234.37 894.82c196.41,0 355.63,159.22 355.63,355.63 0,196.41 -159.22,355.63 -355.63,355.63 -196.41,0 -355.63,-159.22 -355.63,-355.63 0,-196.41 159.22,-355.63 355.63,-355.63z"/>
   <path class="fil1" d="M1234.37 1789.65c196.41,0 355.63,159.22 355.63,355.63 0,196.41 -159.22,355.63 -355.63,355.63 -196.41,0 -355.63,-159.22 -355.63,-355.63 0,-196.41 159.22,-355.63 355.63,-355.63z"/>
   <path class="fil1" d="M355.63 0c196.41,0 355.63,159.22 355.63,355.63 0,196.41 -159.22,355.63 -355.63,355.63 -196.41,0 -355.63,-159.22 -355.63,-355.63 0,-196.41 159.22,-355.63 355.63,-355.63z"/>
   <path class="fil1" d="M2102.82 0c196.41,0 355.63,159.22 355.63,355.63 0,196.41 -159.22,355.63 -355.63,355.63 -196.41,0 -355.63,-159.22 -355.63,-355.63 0,-196.41 159.22,-355.63 355.63,-355.63z"/>
  </g>
 </g>
</svg>
