<?xml version="1.0" encoding="UTF-8"?>
<!DOCTYPE svg PUBLIC "-//W3C//DTD SVG 1.1//EN" "http://www.w3.org/Graphics/SVG/1.1/DTD/svg11.dtd">
<!-- Creator: CorelDRAW 2019 (64-Bit) -->
<svg xmlns="http://www.w3.org/2000/svg" xml:space="preserve" width="98.0619mm" height="28.0775mm" version="1.1" style="shape-rendering:geometricPrecision; text-rendering:geometricPrecision; image-rendering:optimizeQuality; fill-rule:evenodd; clip-rule:evenodd"
viewBox="0 0 2349.84 672.82"
 xmlns:xlink="http://www.w3.org/1999/xlink"
 xmlns:xodm="http://www.corel.com/coreldraw/odm/2003">
 <defs>
  <style type="text/css">
   <![CDATA[
    .fil1 {fill:#201E1E}
    .fil0 {fill:#201E1E;fill-rule:nonzero}
   ]]>
  </style>
 </defs>
 <g id="__x0023_Layer_x0020_1">
  <metadata id="CorelCorpID_0Corel-Layer"/>
  <g id="_938513536">
   <path class="fil0" d="M738.8 301.34l0 -255.27 172.2 0 0 29.95 -138.33 0 0 79.5 119.79 0 0 29.95 -119.79 0 0 115.87 -33.87 0zm332.93 0l0 -27.51c-14.38,20.97 -33.87,31.43 -58.53,31.43 -10.87,0 -21.03,-2.08 -30.48,-6.24 -9.45,-4.22 -16.46,-9.45 -21.03,-15.75 -4.57,-6.35 -7.78,-14.08 -9.63,-23.23 -1.25,-6.18 -1.9,-15.92 -1.9,-29.23l0 -114.5 31.37 0 0 102.38c0,16.34 0.65,27.39 1.9,33.04 1.96,8.26 6.12,14.68 12.54,19.37 6.36,4.69 14.2,7.07 23.59,7.07 9.39,0 18.18,-2.38 26.38,-7.19 8.2,-4.81 14.02,-11.41 17.47,-19.67 3.39,-8.26 5.11,-20.32 5.11,-36.07l0 -98.94 31.37 0 0 185.03 -28.16 0zm77.42 0l0 -185.03 28.17 0 0 26.26c13.55,-20.14 33.15,-30.18 58.77,-30.18 11.17,0 21.39,2.02 30.72,6 9.33,3.98 16.34,9.27 20.97,15.75 4.64,6.48 7.91,14.2 9.75,23.11 1.13,5.82 1.73,15.98 1.73,30.48l0 113.61 -31.37 0 0 -112.42c0,-12.78 -1.19,-22.34 -3.62,-28.64 -2.44,-6.3 -6.78,-11.35 -12.96,-15.15 -6.18,-3.74 -13.49,-5.64 -21.81,-5.64 -13.31,0 -24.78,4.22 -34.46,12.72 -9.69,8.44 -14.5,24.54 -14.5,48.19l0 100.95 -31.37 0zm317.72 0l0 -23.47c-11.71,18.24 -28.94,27.39 -51.7,27.39 -14.74,0 -28.29,-4.04 -40.59,-12.18 -12.36,-8.08 -21.93,-19.43 -28.76,-33.93 -6.77,-14.56 -10.16,-31.25 -10.16,-50.15 0,-18.42 3.09,-35.12 9.21,-50.15 6.18,-14.97 15.39,-26.5 27.69,-34.46 12.24,-8.02 26.02,-12 41.18,-12 11.17,0 21.09,2.37 29.77,7.07 8.68,4.69 15.75,10.87 21.21,18.42l0 -91.8 31.37 0 0 255.27 -29.23 0zm-99.11 -92.28c0,23.65 4.99,41.3 15.03,53 9.98,11.71 21.81,17.53 35.41,17.53 13.73,0 25.37,-5.58 35,-16.76 9.56,-11.17 14.38,-28.22 14.38,-51.16 0,-25.19 -4.87,-43.73 -14.68,-55.56 -9.74,-11.83 -21.81,-17.71 -36.13,-17.71 -13.96,0 -25.61,5.64 -35,16.99 -9.33,11.35 -14.02,29.24 -14.02,53.66zm298.82 69.1c-11.65,9.92 -22.88,16.87 -33.63,20.97 -10.75,4.1 -22.28,6.12 -34.64,6.12 -20.32,0 -35.95,-4.93 -46.88,-14.85 -10.93,-9.86 -16.4,-22.52 -16.4,-37.91 0,-9.03 2.08,-17.29 6.18,-24.78 4.16,-7.49 9.57,-13.43 16.22,-17.95 6.71,-4.52 14.2,-7.96 22.58,-10.28 6.18,-1.6 15.51,-3.15 27.93,-4.69 25.31,-2.97 44.03,-6.6 55.97,-10.76 0.12,-4.28 0.18,-7.01 0.18,-8.14 0,-12.71 -2.97,-21.69 -8.91,-26.92 -8.02,-7.07 -19.97,-10.57 -35.77,-10.57 -14.8,0 -25.73,2.61 -32.74,7.78 -7.07,5.17 -12.24,14.32 -15.63,27.51l-30.66 -4.28c2.79,-13.13 7.37,-23.77 13.79,-31.85 6.42,-8.08 15.69,-14.26 27.81,-18.66 12.06,-4.34 26.15,-6.53 42.07,-6.53 15.81,0 28.7,1.84 38.62,5.59 9.87,3.74 17.17,8.38 21.81,14.02 4.64,5.65 7.91,12.78 9.81,21.39 1.01,5.35 1.55,14.97 1.55,28.82l0 41.59c0,29.06 0.65,47.42 1.96,55.2 1.25,7.79 3.86,15.21 7.67,22.34l-32.8 0c-3.15,-6.6 -5.17,-14.32 -6.06,-23.17zm-2.5 -69.52c-11.41,4.63 -28.52,8.56 -51.34,11.77 -12.95,1.84 -22.1,3.92 -27.45,6.24 -5.35,2.31 -9.45,5.7 -12.36,10.1 -2.91,4.46 -4.4,9.39 -4.4,14.85 0,8.26 3.15,15.21 9.51,20.74 6.36,5.53 15.63,8.32 27.81,8.32 12.06,0 22.82,-2.61 32.26,-7.9 9.39,-5.23 16.34,-12.42 20.74,-21.51 3.39,-7.07 5.05,-17.47 5.05,-31.19l0.18 -11.41zm200.78 24.96l30.66 4.28c-3.39,21.09 -11.94,37.55 -25.79,49.5 -13.84,11.94 -30.9,17.88 -51.04,17.88 -25.25,0 -45.57,-8.26 -60.9,-24.78 -15.39,-16.52 -23.05,-40.17 -23.05,-70.95 0,-19.97 3.33,-37.37 9.92,-52.35 6.59,-14.91 16.64,-26.14 30.18,-33.57 13.49,-7.49 28.17,-11.23 44.09,-11.23 20.02,0 36.48,5.05 49.2,15.21 12.77,10.16 20.97,24.6 24.54,43.26l-30.3 4.63c-2.91,-12.42 -8.02,-21.75 -15.45,-28.05 -7.37,-6.24 -16.28,-9.39 -26.74,-9.39 -15.81,0 -28.64,5.64 -38.56,16.93 -9.86,11.35 -14.79,29.17 -14.79,53.66 0,24.84 4.75,42.84 14.26,54.07 9.57,11.23 21.99,16.87 37.26,16.87 12.36,0 22.64,-3.74 30.84,-11.29 8.26,-7.49 13.49,-19.07 15.69,-34.7zm57.4 -151.88l0 -35.65 31.37 0 0 35.65 -31.37 0zm0 219.61l0 -185.03 31.37 0 0 185.03 -31.37 0zm67.44 -92.52c0,-34.17 9.51,-59.48 28.58,-75.94 15.86,-13.67 35.29,-20.5 58.17,-20.5 25.37,0 46.17,8.32 62.33,24.95 16.1,16.58 24.19,39.57 24.19,68.87 0,23.77 -3.57,42.42 -10.7,56.03 -7.13,13.61 -17.53,24.18 -31.19,31.73 -13.61,7.55 -28.52,11.29 -44.62,11.29 -25.91,0 -46.82,-8.26 -62.81,-24.84 -15.98,-16.58 -23.95,-40.46 -23.95,-71.6zm32.09 0.06c0,23.65 5.17,41.36 15.51,53.06 10.4,11.76 23.41,17.65 39.16,17.65 15.57,0 28.52,-5.88 38.92,-17.71 10.34,-11.83 15.51,-29.83 15.51,-54.01 0,-22.82 -5.23,-40.11 -15.63,-51.81 -10.4,-11.77 -23.35,-17.65 -38.8,-17.65 -15.75,0 -28.76,5.82 -39.16,17.53 -10.34,11.7 -15.51,29.35 -15.51,52.94zm28.52 -115.39l22.82 -48.84 41.36 0 -38.15 48.84 -26.03 0zm149.44 207.85l0 -185.03 28.17 0 0 26.26c13.55,-20.14 33.15,-30.18 58.77,-30.18 11.17,0 21.39,2.02 30.72,6 9.33,3.98 16.34,9.27 20.97,15.75 4.63,6.48 7.9,14.2 9.75,23.11 1.13,5.82 1.72,15.98 1.72,30.48l0 113.61 -31.37 0 0 -112.42c0,-12.78 -1.19,-22.34 -3.62,-28.64 -2.44,-6.3 -6.77,-11.35 -12.95,-15.15 -6.18,-3.74 -13.49,-5.64 -21.81,-5.64 -13.31,0 -24.78,4.22 -34.46,12.72 -9.69,8.44 -14.5,24.54 -14.5,48.19l0 100.95 -31.37 0zm-1368.08 323.03l0 -225.32 -84.14 0 0 -29.95 202.15 0 0 29.95 -84.14 0 0 225.32 -33.87 0zm235.66 -59.9l32.44 4.28c-5.05,18.83 -14.5,33.51 -28.29,43.91 -13.78,10.4 -31.37,15.63 -52.82,15.63 -26.98,0 -48.37,-8.32 -64.17,-24.96 -15.81,-16.58 -23.71,-39.93 -23.71,-69.94 0,-31.02 7.96,-55.14 23.95,-72.26 15.99,-17.17 36.72,-25.73 62.21,-25.73 24.66,0 44.8,8.38 60.43,25.19 15.63,16.81 23.47,40.46 23.47,70.94 0,1.84 -0.06,4.63 -0.18,8.32l-137.79 0c1.19,20.26 6.89,35.83 17.23,46.59 10.28,10.75 23.17,16.16 38.56,16.16 11.47,0 21.27,-3.03 29.35,-9.09 8.14,-6.06 14.56,-15.75 19.31,-29.05zm-102.68 -50.27l103.04 0c-1.37,-15.57 -5.35,-27.21 -11.83,-35 -9.92,-12.06 -22.88,-18.13 -38.74,-18.13 -14.38,0 -26.44,4.81 -36.24,14.44 -9.75,9.63 -15.15,22.52 -16.22,38.68zm174.04 110.16l0 -255.27 31.37 0 0 255.27 -31.37 0zm206.13 -59.9l32.44 4.28c-5.05,18.83 -14.5,33.51 -28.29,43.91 -13.78,10.4 -31.37,15.63 -52.82,15.63 -26.98,0 -48.37,-8.32 -64.17,-24.96 -15.81,-16.58 -23.71,-39.93 -23.71,-69.94 0,-31.02 7.96,-55.14 23.95,-72.26 15.99,-17.17 36.72,-25.73 62.21,-25.73 24.66,0 44.8,8.38 60.43,25.19 15.63,16.81 23.47,40.46 23.47,70.94 0,1.84 -0.06,4.63 -0.18,8.32l-137.79 0c1.19,20.26 6.89,35.83 17.23,46.59 10.28,10.75 23.17,16.16 38.56,16.16 11.47,0 21.27,-3.03 29.35,-9.09 8.14,-6.06 14.56,-15.75 19.31,-29.05zm-102.68 -50.27l103.04 0c-1.37,-15.57 -5.35,-27.21 -11.83,-35 -9.92,-12.06 -22.88,-18.13 -38.74,-18.13 -14.38,0 -26.44,4.81 -36.24,14.44 -9.75,9.63 -15.15,22.52 -16.22,38.68zm182.24 110.16l0 -160.79 -27.81 0 0 -24.24 27.81 0 0 -19.61c0,-12.42 1.07,-21.63 3.27,-27.63 3.03,-8.08 8.26,-14.68 15.87,-19.73 7.55,-5.05 18.18,-7.55 31.85,-7.55 8.85,0 18.6,1.07 29.29,3.15l-4.69 27.45c-6.53,-1.13 -12.65,-1.72 -18.48,-1.72 -9.51,0 -16.22,2.02 -20.2,6.06 -3.92,4.04 -5.88,11.59 -5.88,22.64l0 16.93 36.01 0 0 24.24 -35.65 0 0 160.79 -31.37 0zm79.8 -92.52c0,-34.17 9.51,-59.48 28.58,-75.94 15.87,-13.67 35.29,-20.5 58.17,-20.5 25.37,0 46.17,8.32 62.33,24.95 16.1,16.58 24.19,39.57 24.19,68.87 0,23.77 -3.57,42.43 -10.7,56.03 -7.13,13.61 -17.53,24.18 -31.19,31.73 -13.61,7.55 -28.52,11.29 -44.62,11.29 -25.91,0 -46.82,-8.26 -62.81,-24.84 -15.98,-16.58 -23.95,-40.46 -23.95,-71.6zm32.09 0.06c0,23.65 5.17,41.36 15.51,53.06 10.4,11.76 23.41,17.65 39.16,17.65 15.57,0 28.52,-5.88 38.92,-17.71 10.34,-11.83 15.51,-29.83 15.51,-54.01 0,-22.82 -5.23,-40.11 -15.63,-51.81 -10.4,-11.77 -23.35,-17.65 -38.8,-17.65 -15.75,0 -28.76,5.82 -39.16,17.53 -10.34,11.71 -15.51,29.35 -15.51,52.94zm28.52 -115.39l22.82 -48.84 41.36 0 -38.15 48.84 -26.02 0zm149.44 207.85l0 -185.03 28.16 0 0 26.26c13.55,-20.14 33.16,-30.18 58.77,-30.18 11.17,0 21.39,2.02 30.72,6 9.33,3.98 16.34,9.27 20.97,15.75 4.63,6.48 7.9,14.2 9.75,23.11 1.13,5.82 1.72,15.98 1.72,30.48l0 113.61 -31.37 0 0 -112.42c0,-12.78 -1.19,-22.34 -3.62,-28.64 -2.44,-6.3 -6.77,-11.35 -12.95,-15.15 -6.18,-3.74 -13.49,-5.64 -21.81,-5.64 -13.31,0 -24.78,4.22 -34.46,12.71 -9.69,8.44 -14.5,24.54 -14.5,48.19l0 100.96 -31.37 0zm198.28 -219.61l0 -35.65 31.37 0 0 35.65 -31.37 0zm0 219.61l0 -185.03 31.37 0 0 185.03 -31.37 0zm200.07 -67.74l30.66 4.28c-3.39,21.09 -11.94,37.55 -25.79,49.5 -13.84,11.94 -30.9,17.88 -51.04,17.88 -25.25,0 -45.57,-8.26 -60.9,-24.78 -15.39,-16.52 -23.06,-40.17 -23.06,-70.95 0,-19.97 3.33,-37.37 9.93,-52.35 6.59,-14.91 16.63,-26.14 30.18,-33.57 13.49,-7.49 28.17,-11.23 44.09,-11.23 20.02,0 36.48,5.05 49.2,15.21 12.78,10.16 20.98,24.6 24.54,43.26l-30.31 4.64c-2.91,-12.42 -8.02,-21.75 -15.45,-28.05 -7.37,-6.24 -16.28,-9.39 -26.74,-9.39 -15.81,0 -28.64,5.65 -38.56,16.94 -9.86,11.35 -14.8,29.17 -14.8,53.66 0,24.84 4.75,42.84 14.26,54.07 9.57,11.23 21.99,16.87 37.26,16.87 12.36,0 22.64,-3.74 30.84,-11.29 8.26,-7.49 13.49,-19.07 15.69,-34.7zm178.26 44.57c-11.65,9.92 -22.88,16.87 -33.63,20.97 -10.75,4.1 -22.28,6.12 -34.64,6.12 -20.32,0 -35.95,-4.93 -46.88,-14.85 -10.93,-9.86 -16.4,-22.52 -16.4,-37.91 0,-9.03 2.08,-17.29 6.18,-24.78 4.16,-7.49 9.57,-13.43 16.22,-17.95 6.71,-4.52 14.2,-7.96 22.58,-10.28 6.18,-1.6 15.51,-3.15 27.93,-4.69 25.31,-2.97 44.03,-6.6 55.97,-10.76 0.12,-4.28 0.18,-7.01 0.18,-8.14 0,-12.72 -2.97,-21.69 -8.91,-26.92 -8.02,-7.07 -19.97,-10.58 -35.77,-10.58 -14.8,0 -25.73,2.61 -32.74,7.79 -7.07,5.17 -12.24,14.32 -15.63,27.51l-30.66 -4.28c2.79,-13.13 7.37,-23.77 13.79,-31.85 6.42,-8.08 15.69,-14.26 27.81,-18.66 12.06,-4.34 26.15,-6.53 42.07,-6.53 15.81,0 28.7,1.84 38.62,5.58 9.87,3.74 17.17,8.38 21.81,14.02 4.64,5.65 7.91,12.78 9.81,21.39 1.01,5.35 1.55,14.97 1.55,28.82l0 41.59c0,29.06 0.65,47.42 1.96,55.2 1.25,7.78 3.86,15.21 7.67,22.34l-32.8 0c-3.15,-6.6 -5.17,-14.32 -6.06,-23.17zm-2.5 -69.52c-11.41,4.63 -28.52,8.55 -51.34,11.77 -12.95,1.84 -22.1,3.92 -27.45,6.24 -5.35,2.32 -9.45,5.71 -12.36,10.1 -2.91,4.45 -4.4,9.39 -4.4,14.85 0,8.26 3.15,15.21 9.51,20.74 6.36,5.53 15.63,8.32 27.81,8.32 12.06,0 22.82,-2.61 32.26,-7.9 9.39,-5.23 16.34,-12.42 20.74,-21.51 3.39,-7.07 5.05,-17.47 5.05,-31.19l0.18 -11.41z"/>
   <path class="fil1" d="M332.08 0c52.84,0 95.68,42.84 95.68,95.67 0,52.84 -42.84,95.68 -95.68,95.68 -52.84,0 -95.67,-42.84 -95.67,-95.68 0,-52.84 42.84,-95.67 95.67,-95.67z"/>
   <path class="fil1" d="M332.08 240.73c52.84,0 95.68,42.84 95.68,95.68 0,52.84 -42.84,95.67 -95.68,95.67 -52.84,0 -95.67,-42.84 -95.67,-95.67 0,-52.84 42.84,-95.68 95.67,-95.68z"/>
   <path class="fil1" d="M332.08 481.47c52.84,0 95.68,42.84 95.68,95.68 0,52.84 -42.84,95.67 -95.68,95.67 -52.84,0 -95.67,-42.84 -95.67,-95.67 0,-52.84 42.84,-95.68 95.67,-95.68z"/>
   <path class="fil1" d="M95.67 0c52.84,0 95.67,42.84 95.67,95.67 0,52.84 -42.83,95.68 -95.67,95.68 -52.84,0 -95.67,-42.84 -95.67,-95.68 0,-52.84 42.83,-95.67 95.67,-95.67z"/>
   <path class="fil1" d="M565.72 0c52.84,0 95.67,42.84 95.67,95.67 0,52.84 -42.83,95.68 -95.67,95.68 -52.84,0 -95.67,-42.84 -95.67,-95.68 0,-52.84 42.83,-95.67 95.67,-95.67z"/>
  </g>
 </g>
</svg>
