<?xml version="1.0" encoding="UTF-8"?>
<!DOCTYPE svg PUBLIC "-//W3C//DTD SVG 1.1//EN" "http://www.w3.org/Graphics/SVG/1.1/DTD/svg11.dtd">
<!-- Creator: CorelDRAW 2019 (64-Bit) -->
<svg xmlns="http://www.w3.org/2000/svg" xml:space="preserve" width="98.0619mm" height="28.4688mm" version="1.1" style="shape-rendering:geometricPrecision; text-rendering:geometricPrecision; image-rendering:optimizeQuality; fill-rule:evenodd; clip-rule:evenodd"
viewBox="0 0 2349.84 682.19"
 xmlns:xlink="http://www.w3.org/1999/xlink"
 xmlns:xodm="http://www.corel.com/coreldraw/odm/2003">
 <defs>
  <style type="text/css">
   <![CDATA[
    .fil0 {fill:#201E1E;fill-rule:nonzero}
   ]]>
  </style>
 </defs>
 <g id="__x0023_Layer_x0020_1">
  <metadata id="CorelCorpID_0Corel-Layer"/>
  <g id="_1025856320">
   <path class="fil0" d="M0.47 1.56c32.98,-0.78 65.85,-0.56 98.83,-1.33 1.34,64.07 43.01,119.11 101.5,143.28 0.34,-47.8 0.34,-95.59 0,-143.51 33.65,0.56 67.3,0.45 101.06,0.34 -0.78,47.8 -0.89,95.48 0,143.28 57.38,-25.74 98.27,-79.55 102.5,-143.17 31.76,0.55 63.4,0.44 95.15,0.44 -1.45,106.51 -78.22,206.57 -182.28,231.86 60.28,4.23 120.55,1.34 180.83,2.12 -0.45,30.86 -0.45,61.84 -0.23,92.81 -56.6,-0.22 -113.2,0.89 -169.8,-0.89 98.6,31.75 171.7,127.91 171.81,232.2 -31.86,0.34 -63.73,0.23 -95.6,0.78 -5.13,-62.95 -42.67,-120.78 -102.62,-144.06 -0.22,48.02 -0.22,96.16 0.23,144.17 -33.65,-0.11 -67.41,0 -101.17,0 0.56,-49.25 0.22,-98.49 0.45,-147.74 -3.01,2.34 -9.25,7.02 -12.37,9.36 -56.15,21.62 -89.02,79.44 -91.48,137.83 -32.42,0.45 -64.85,0.45 -97.27,0.11 -1.44,-100.5 68.19,-185.29 153.65,-230.3 -51.03,-2.56 -102.17,-1.45 -153.2,-0.78 -0.11,-31.08 0.12,-62.28 -0.22,-93.48 59.27,-0.45 118.55,1.12 177.71,-1 -100.05,-31.42 -174.04,-127.13 -177.49,-232.31z"/>
   <path class="fil0" d="M606.25 3.57c57.6,-0.33 115.21,0 172.81,-0.33 -0.56,112.98 -0.23,226.07 -0.23,339.05 -1.89,39.11 17.72,81.11 57.27,93.26 34.87,7.02 76.21,8.36 104.84,-16.38 24.18,-22.28 30.53,-57.27 29.75,-88.8 -0.45,-109.08 0.11,-218.16 -0.45,-327.13 56.71,0.45 113.31,0.11 170.02,0.11 -0.56,109.19 0.11,218.27 -0.22,327.35 -0.11,61.06 -15.71,125.23 -59.05,170.36 -32.42,37.32 -80.22,54.59 -126.9,65.73 -96.38,2.23 -212.14,14.04 -284.56,-63.4 -55.71,-53.14 -60.5,-134.04 -63.06,-206.24 -0.34,-97.83 0.34,-195.76 -0.22,-293.59z"/>
   <path class="fil0" d="M1216.16 139.39c0.45,-45.46 0.12,-90.8 0,-136.15 174.15,0.33 348.3,0.22 522.44,0 -0.33,45.46 -0.22,90.92 -0.33,136.37 -58.61,-1.11 -117.21,-0.45 -175.82,-0.67 -0.34,140.5 -1,281 0.33,421.38 -56.93,-0.33 -113.87,-0.33 -170.91,0 1,-140.39 0.45,-280.89 0.34,-421.27 -58.72,0 -117.32,-0.33 -176.04,0.34z"/>
   <path class="fil0" d="M1817.93 3.35c53.48,0.22 106.96,-0.11 160.55,0.22 69.52,103.06 138.94,206.13 209.58,308.3 0.56,-102.84 0,-205.68 0.22,-308.41 53.82,0 107.74,0 161.56,-0.11 -0.56,185.51 -0.22,371.13 -0.11,556.76 -53.7,0.11 -107.41,-0.22 -161,0.11 -69.75,-101.61 -138.49,-203.89 -208.24,-305.51 -1.34,101.73 0,203.45 -0.45,305.29 -54.04,0.22 -108.19,0 -162.23,0.33 0.56,-185.74 0.23,-371.36 0.12,-556.98z"/>
   <path class="fil0" d="M49.39 605.56l23.26 0 0 44.89c0,4.44 -0.7,8.65 -2.09,12.59 -1.39,3.97 -3.56,7.42 -6.53,10.39 -2.96,2.97 -6.07,5.03 -9.32,6.25 -4.53,1.67 -9.96,2.51 -16.3,2.51 -3.67,0 -7.67,-0.26 -12,-0.77 -4.33,-0.51 -7.97,-1.53 -10.88,-3.06 -2.91,-1.52 -5.58,-3.68 -7.98,-6.49 -2.42,-2.81 -4.07,-5.7 -4.97,-8.69 -1.44,-4.79 -2.16,-9.03 -2.16,-12.73l0 -44.89 23.26 0 0 45.96c0,4.1 1.14,7.32 3.4,9.61 2.28,2.32 5.44,3.47 9.47,3.47 3.98,0 7.12,-1.14 9.4,-3.42 2.26,-2.26 3.41,-5.49 3.41,-9.67l0 -45.96zm38.84 0l21.74 0 28.26 41.61 0 -41.61 22 0 0 75.37 -22 0 -28.1 -41.38 0 41.38 -21.89 0 0 -75.37zm88.42 0l23.37 0 0 75.37 -23.37 0 0 -75.37zm32.65 0l24.33 0 16.98 54.24 16.74 -54.24 23.63 0 -27.98 75.37 -25.23 0 -28.47 -75.37zm89.24 0l62.31 0 0 16.1 -38.94 0 0 12 36.1 0 0 15.37 -36.1 0 0 14.84 40.1 0 0 17.05 -63.47 0 0 -75.37zm76.33 75.37l0 -75.37 38.81 0c7.19,0 12.7,0.62 16.49,1.86 3.81,1.23 6.88,3.52 9.21,6.86 2.33,3.35 3.49,7.44 3.49,12.25 0,4.17 -0.89,7.79 -2.68,10.82 -1.77,3.06 -4.23,5.51 -7.37,7.4 -1.98,1.19 -4.72,2.19 -8.17,2.98 2.77,0.93 4.79,1.84 6.05,2.77 0.84,0.62 2.09,1.95 3.72,3.97 1.61,2.02 2.7,3.58 3.25,4.68l11.32 21.77 -26.32 0 -12.44 -22.98c-1.58,-2.98 -2.98,-4.91 -4.21,-5.8 -1.68,-1.16 -3.59,-1.74 -5.72,-1.74l-2.05 0 0 30.52 -23.37 0zm23.37 -44.73l9.84 0c1.05,0 3.12,-0.35 6.18,-1.04 1.55,-0.3 2.81,-1.09 3.77,-2.37 0.98,-1.28 1.47,-2.74 1.47,-4.39 0,-2.44 -0.77,-4.32 -2.31,-5.61 -1.54,-1.32 -4.44,-1.96 -8.7,-1.96l-10.24 0 0 15.37zm54.19 19.81l22.11 -1.39c0.47,3.58 1.45,6.32 2.93,8.17 2.4,3.03 5.82,4.56 10.28,4.56 3.32,0 5.88,-0.77 7.67,-2.33 1.81,-1.56 2.7,-3.37 2.7,-5.42 0,-1.95 -0.84,-3.7 -2.54,-5.25 -1.7,-1.54 -5.67,-2.98 -11.9,-4.37 -10.21,-2.28 -17.47,-5.34 -21.82,-9.14 -4.39,-3.79 -6.58,-8.63 -6.58,-14.53 0,-3.86 1.12,-7.51 3.37,-10.95 2.25,-3.46 5.61,-6.16 10.12,-8.12 4.51,-1.96 10.69,-2.95 18.53,-2.95 9.63,0 16.96,1.79 22.02,5.38 5.05,3.58 8.05,9.28 9.02,17.1l-21.89 1.3c-0.58,-3.42 -1.81,-5.91 -3.67,-7.45 -1.88,-1.56 -4.45,-2.33 -7.74,-2.33 -2.7,0 -4.75,0.58 -6.12,1.72 -1.37,1.14 -2.05,2.55 -2.05,4.2 0,1.19 0.56,2.26 1.67,3.23 1.07,1 3.67,1.91 7.77,2.77 10.18,2.19 17.46,4.42 21.84,6.67 4.4,2.25 7.61,5.02 9.61,8.35 2,3.32 3,7.04 3,11.16 0,4.83 -1.33,9.28 -4,13.37 -2.68,4.07 -6.41,7.18 -11.21,9.28 -4.79,2.11 -10.82,3.16 -18.12,3.16 -12.8,0 -21.68,-2.47 -26.61,-7.4 -4.93,-4.93 -7.72,-11.19 -8.37,-18.79zm80.96 -50.44l23.37 0 0 75.37 -23.37 0 0 -75.37zm40.33 0l34.61 0c6.81,0 12.33,0.93 16.53,2.77 4.19,1.86 7.67,4.51 10.42,7.97 2.74,3.47 4.72,7.49 5.95,12.09 1.25,4.6 1.86,9.46 1.86,14.59 0,8.05 -0.91,14.3 -2.75,18.74 -1.83,4.44 -4.37,8.16 -7.63,11.15 -3.26,3 -6.76,5 -10.49,6 -5.1,1.37 -9.74,2.05 -13.88,2.05l-34.61 0 0 -75.37zm23.26 17.05l0 41.16 5.72 0c4.88,0 8.35,-0.55 10.42,-1.62 2.05,-1.09 3.67,-2.96 4.84,-5.65 1.17,-2.71 1.75,-7.05 1.75,-13.09 0,-7.98 -1.3,-13.44 -3.91,-16.39 -2.61,-2.95 -6.95,-4.42 -13,-4.42l-5.83 0zm100.14 45.89l-26.38 0 -3.79 12.42 -23.77 0 28.37 -75.37 25.49 0 28.24 75.37 -24.38 0 -3.77 -12.42zm-4.93 -16.32l-8.23 -27.09 -8.26 27.09 16.49 0zm40.75 -46.63l34.61 0c6.81,0 12.33,0.93 16.53,2.77 4.19,1.86 7.66,4.51 10.42,7.97 2.74,3.47 4.72,7.49 5.95,12.09 1.25,4.6 1.86,9.46 1.86,14.59 0,8.05 -0.91,14.3 -2.75,18.74 -1.83,4.44 -4.37,8.16 -7.63,11.15 -3.26,3 -6.76,5 -10.49,6 -5.1,1.37 -9.74,2.05 -13.88,2.05l-34.61 0 0 -75.37zm23.26 17.05l0 41.16 5.72 0c4.88,0 8.35,-0.55 10.42,-1.62 2.05,-1.09 3.67,-2.96 4.84,-5.65 1.18,-2.71 1.75,-7.05 1.75,-13.09 0,-7.98 -1.3,-13.44 -3.91,-16.39 -2.61,-2.95 -6.95,-4.42 -13,-4.42l-5.83 0zm88.14 -17.05l70.84 0 0 18.63 -23.79 0 0 56.73 -23.26 0 0 -56.73 -23.79 0 0 -18.63zm81.27 0l62.32 0 0 16.1 -38.95 0 0 12 36.1 0 0 15.37 -36.1 0 0 14.84 40.1 0 0 17.05 -63.47 0 0 -75.37zm126.22 44.53l20.42 6.16c-1.37,5.72 -3.52,10.51 -6.49,14.33 -2.95,3.84 -6.6,6.74 -10.98,8.68 -4.37,1.95 -9.93,2.93 -16.69,2.93 -8.21,0 -14.89,-1.2 -20.1,-3.56 -5.19,-2.38 -9.66,-6.58 -13.44,-12.56 -3.77,-5.98 -5.67,-13.67 -5.67,-23 0,-12.46 3.32,-22.03 9.95,-28.74 6.65,-6.68 16.04,-10.03 28.18,-10.03 9.49,0 16.96,1.91 22.4,5.75 5.42,3.84 9.47,9.74 12.11,17.7l-20.53 4.54c-0.72,-2.28 -1.48,-3.95 -2.26,-5 -1.31,-1.77 -2.91,-3.14 -4.79,-4.09 -1.9,-0.96 -4,-1.44 -6.33,-1.44 -5.3,0 -9.35,2.12 -12.16,6.35 -2.12,3.14 -3.19,8.09 -3.19,14.81 0,8.35 1.26,14.05 3.81,17.16 2.54,3.09 6.11,4.63 10.7,4.63 4.46,0 7.82,-1.24 10.11,-3.75 2.28,-2.49 3.93,-6.12 4.96,-10.88zm31.88 -44.53l21.74 0 28.26 41.61 0 -41.61 22 0 0 75.37 -22 0 -28.1 -41.38 0 41.38 -21.89 0 0 -75.37zm84.52 37.73c0,-12.3 3.42,-21.87 10.28,-28.72 6.86,-6.86 16.4,-10.28 28.65,-10.28 12.54,0 22.21,3.37 29,10.09 6.79,6.74 10.18,16.18 10.18,28.3 0,8.8 -1.47,16.01 -4.44,21.65 -2.96,5.63 -7.26,10.02 -12.86,13.16 -5.61,3.14 -12.59,4.7 -20.97,4.7 -8.49,0 -15.52,-1.35 -21.1,-4.05 -5.56,-2.72 -10.09,-7 -13.54,-12.86 -3.46,-5.84 -5.19,-13.17 -5.19,-21.98zm23.26 0.06c0,7.6 1.42,13.07 4.24,16.39 2.84,3.31 6.7,4.98 11.58,4.98 5,0 8.89,-1.63 11.63,-4.88 2.75,-3.26 4.12,-9.09 4.12,-17.53 0,-7.09 -1.44,-12.26 -4.3,-15.53 -2.88,-3.28 -6.76,-4.91 -11.67,-4.91 -4.7,0 -8.49,1.67 -11.33,4.98 -2.86,3.31 -4.28,8.83 -4.28,16.49zm67.37 -37.79l23.26 0 0 56.84 36.42 0 0 18.53 -59.68 0 0 -75.37zm67.26 37.73c0,-12.3 3.42,-21.87 10.28,-28.72 6.86,-6.86 16.4,-10.28 28.65,-10.28 12.54,0 22.21,3.37 29,10.09 6.79,6.74 10.18,16.18 10.18,28.3 0,8.8 -1.47,16.01 -4.44,21.65 -2.97,5.63 -7.26,10.02 -12.86,13.16 -5.61,3.14 -12.59,4.7 -20.97,4.7 -8.49,0 -15.52,-1.35 -21.1,-4.05 -5.56,-2.72 -10.09,-7 -13.54,-12.86 -3.46,-5.84 -5.19,-13.17 -5.19,-21.98zm23.26 0.06c0,7.6 1.42,13.07 4.24,16.39 2.84,3.31 6.7,4.98 11.58,4.98 5,0 8.89,-1.63 11.63,-4.88 2.76,-3.26 4.13,-9.09 4.13,-17.53 0,-7.09 -1.44,-12.26 -4.3,-15.53 -2.88,-3.28 -6.76,-4.91 -11.67,-4.91 -4.7,0 -8.49,1.67 -11.33,4.98 -2.86,3.31 -4.28,8.83 -4.28,16.49zm15.26 -57.68l18 0 -16.63 15.37 -10 0 8.63 -15.37zm90 68l0 -15.68 36 0 0 32.06c-6.89,4.7 -12.98,7.91 -18.26,9.61 -5.3,1.7 -11.58,2.54 -18.84,2.54 -8.95,0 -16.25,-1.53 -21.88,-4.58 -5.63,-3.03 -10,-7.57 -13.1,-13.61 -3.11,-6.02 -4.65,-12.95 -4.65,-20.75 0,-8.23 1.7,-15.37 5.09,-21.46 3.39,-6.07 8.35,-10.69 14.9,-13.84 5.1,-2.44 11.98,-3.65 20.62,-3.65 8.31,0 14.54,0.75 18.66,2.26 4.14,1.5 7.56,3.84 10.28,7.02 2.72,3.18 4.77,7.19 6.14,12.05l-22.42 4.03c-0.93,-2.86 -2.49,-5.05 -4.7,-6.56 -2.21,-1.52 -5.02,-2.28 -8.45,-2.28 -5.09,0 -9.16,1.77 -12.19,5.31 -3.03,3.54 -4.54,9.16 -4.54,16.82 0,8.14 1.52,13.96 4.6,17.46 3.05,3.49 7.33,5.24 12.81,5.24 2.6,0 5.07,-0.36 7.44,-1.12 2.35,-0.75 5.05,-2.03 8.11,-3.83l0 -7.05 -15.58 0zm50.73 -48.1l23.37 0 0 75.37 -23.37 0 0 -75.37zm90.22 44.53l20.42 6.16c-1.37,5.72 -3.52,10.51 -6.49,14.33 -2.95,3.84 -6.6,6.74 -10.98,8.68 -4.37,1.95 -9.93,2.93 -16.69,2.93 -8.21,0 -14.9,-1.2 -20.11,-3.56 -5.19,-2.38 -9.66,-6.58 -13.44,-12.56 -3.77,-5.98 -5.67,-13.67 -5.67,-23 0,-12.46 3.32,-22.03 9.95,-28.74 6.65,-6.68 16.04,-10.03 28.18,-10.03 9.49,0 16.96,1.91 22.4,5.75 5.42,3.84 9.47,9.74 12.11,17.7l-20.53 4.54c-0.72,-2.28 -1.48,-3.95 -2.26,-5 -1.31,-1.77 -2.91,-3.14 -4.79,-4.09 -1.9,-0.96 -4,-1.44 -6.33,-1.44 -5.3,0 -9.35,2.12 -12.16,6.35 -2.12,3.14 -3.19,8.09 -3.19,14.81 0,8.35 1.27,14.05 3.81,17.16 2.54,3.09 6.11,4.63 10.7,4.63 4.46,0 7.82,-1.24 10.11,-3.75 2.28,-2.49 3.93,-6.12 4.97,-10.88zm78.03 18.42l-26.39 0 -3.79 12.42 -23.77 0 28.37 -75.37 25.49 0 28.24 75.37 -24.38 0 -3.77 -12.42zm-4.93 -16.32l-8.23 -27.09 -8.26 27.09 16.49 0zm75.75 -46.63l21.74 0 28.26 41.61 0 -41.61 22 0 0 75.37 -22 0 -28.1 -41.38 0 41.38 -21.89 0 0 -75.37zm132.8 62.95l-26.39 0 -3.79 12.42 -23.77 0 28.37 -75.37 25.49 0 28.24 75.37 -24.38 0 -3.77 -12.42zm-4.93 -16.32l-8.23 -27.09 -8.26 27.09 16.49 0zm88.75 -2.1l20.42 6.16c-1.37,5.72 -3.52,10.51 -6.49,14.33 -2.95,3.84 -6.6,6.74 -10.98,8.68 -4.37,1.95 -9.93,2.93 -16.69,2.93 -8.21,0 -14.9,-1.2 -20.11,-3.56 -5.19,-2.38 -9.66,-6.58 -13.43,-12.56 -3.77,-5.98 -5.67,-13.67 -5.67,-23 0,-12.46 3.32,-22.03 9.95,-28.74 6.65,-6.68 16.04,-10.03 28.18,-10.03 9.49,0 16.96,1.91 22.4,5.75 5.42,3.84 9.47,9.74 12.11,17.7l-20.53 4.54c-0.72,-2.28 -1.47,-3.95 -2.26,-5 -1.31,-1.77 -2.91,-3.14 -4.79,-4.09 -1.9,-0.96 -4,-1.44 -6.33,-1.44 -5.3,0 -9.35,2.12 -12.16,6.35 -2.12,3.14 -3.19,8.09 -3.19,14.81 0,8.35 1.26,14.05 3.81,17.16 2.54,3.09 6.11,4.63 10.7,4.63 4.45,0 7.82,-1.24 10.1,-3.75 2.28,-2.49 3.93,-6.12 4.97,-10.88zm32.62 -44.53l23.37 0 0 75.37 -23.37 0 0 -75.37zm37.07 37.73c0,-12.3 3.42,-21.87 10.28,-28.72 6.86,-6.86 16.4,-10.28 28.65,-10.28 12.54,0 22.21,3.37 29,10.09 6.79,6.74 10.17,16.18 10.17,28.3 0,8.8 -1.47,16.01 -4.44,21.65 -2.97,5.63 -7.27,10.02 -12.86,13.16 -5.61,3.14 -12.6,4.7 -20.97,4.7 -8.49,0 -15.52,-1.35 -21.1,-4.05 -5.56,-2.72 -10.09,-7 -13.54,-12.86 -3.46,-5.84 -5.19,-13.17 -5.19,-21.98zm23.26 0.06c0,7.6 1.42,13.07 4.24,16.39 2.84,3.31 6.7,4.98 11.58,4.98 5,0 8.9,-1.63 11.63,-4.88 2.75,-3.26 4.12,-9.09 4.12,-17.53 0,-7.09 -1.44,-12.26 -4.3,-15.53 -2.88,-3.28 -6.76,-4.91 -11.67,-4.91 -4.7,0 -8.49,1.67 -11.33,4.98 -2.86,3.31 -4.28,8.83 -4.28,16.49zm67.58 -37.79l21.73 0 28.26 41.61 0 -41.61 22 0 0 75.37 -22 0 -28.1 -41.38 0 41.38 -21.89 0 0 -75.37zm132.8 62.95l-26.39 0 -3.79 12.42 -23.77 0 28.37 -75.37 25.49 0 28.24 75.37 -24.39 0 -3.77 -12.42zm-4.93 -16.32l-8.23 -27.09 -8.26 27.09 16.49 0zm40.44 -46.63l23.26 0 0 56.84 36.42 0 0 18.53 -59.68 0 0 -75.37z"/>
  </g>
 </g>
</svg>
