<?xml version="1.0" encoding="UTF-8"?>
<!DOCTYPE svg PUBLIC "-//W3C//DTD SVG 1.1//EN" "http://www.w3.org/Graphics/SVG/1.1/DTD/svg11.dtd">
<!-- Creator: CorelDRAW 2019 (64-Bit) -->
<svg xmlns="http://www.w3.org/2000/svg" xml:space="preserve" width="163.29mm" height="73.6303mm" version="1.1" style="shape-rendering:geometricPrecision; text-rendering:geometricPrecision; image-rendering:optimizeQuality; fill-rule:evenodd; clip-rule:evenodd"
viewBox="0 0 6346.22 2861.62"
 xmlns:xlink="http://www.w3.org/1999/xlink"
 xmlns:xodm="http://www.corel.com/coreldraw/odm/2003">
 <defs>
  <style type="text/css">
   <![CDATA[
    .fil1 {fill:#201E1E;fill-rule:nonzero}
    .fil0 {fill:#FFCF01;fill-rule:nonzero}
   ]]>
  </style>
 </defs>
 <g id="__x0023_Layer_x0020_1">
  <metadata id="CorelCorpID_0Corel-Layer"/>
  <g id="_1005033904">
   <path class="fil0" d="M857.58 39.84c129.92,-76.38 293.53,-29.3 422.52,27.69 302.75,182.29 472.36,509.5 604.81,824.95 42.69,137.99 83.77,277.13 111.68,419.05 45.23,196.6 39.69,400.13 37.62,600.65 0.92,170.07 -65.3,329.98 -130.6,483.9 -120.45,225.68 -345.21,391.59 -596.74,438.89 -302.29,55.15 -640.11,33.46 -898.1,-148.84 -201.22,-134.07 -313.6,-364.36 -367.36,-593.74 -34.15,-172.84 -51,-350.29 -35.77,-526.35 13.38,-100.84 32.3,-200.98 48.23,-301.36 19.38,-67.85 35.54,-136.61 54.45,-204.68 89.76,-263.52 193.38,-530.27 381.45,-740.72 79.6,-110.53 187.37,-195.45 303.67,-264.21 16.16,-3.93 48,-11.54 64.15,-15.23zm467.98 432.2l0 0c-60.23,149.07 -144.92,303.21 -118.38,469.59 41.76,59.53 95.07,113.07 108.22,187.83 -17.07,26.31 -34.38,52.61 -51.69,78.92 -115.61,-52.61 -242.75,-86.07 -368.29,-46.84 61.15,2.3 122.53,-0.69 183.45,5.53 116.99,48.92 214.37,132.68 314.29,209.06 -4.85,94.38 -57.46,176.29 -79.15,266.75 14.31,-0.92 42.91,-3 57.23,-3.93 -41.08,133.84 -160.15,238.6 -154.15,386.98 36.69,-157.37 137.76,-284.75 211.14,-425.06 -15.23,-2.54 -45.92,-7.61 -61.38,-10.15 33.23,-76.38 68.31,-152.3 93.92,-231.68 -50.77,-30.92 -102.46,-60.22 -154.84,-88.15 9.23,-76.38 45.92,-153.91 19.62,-230.29 -15.46,-50.99 -47.31,-94.61 -77.07,-138.22 -23.77,-150.46 60.22,-284.75 77.07,-430.36z"/>
   <path class="fil1" d="M1325.56 472.04c-16.85,145.61 -100.85,279.91 -77.07,430.36 29.77,43.61 61.61,87.22 77.07,138.22 26.3,76.38 -10.39,153.91 -19.62,230.29 52.38,27.92 104.07,57.23 154.84,88.15 -25.61,79.38 -60.69,155.3 -93.92,231.68 15.46,2.54 46.15,7.61 61.38,10.15 -73.38,140.3 -174.45,267.68 -211.14,425.06 -6,-148.38 113.07,-253.14 154.15,-386.98 -14.31,0.92 -42.92,3 -57.23,3.93 21.69,-90.46 74.3,-172.38 79.15,-266.75 -99.92,-76.38 -197.29,-160.15 -314.29,-209.06 -60.92,-6.23 -122.3,-3.23 -183.45,-5.53 125.53,-39.23 252.68,-5.77 368.29,46.84 17.31,-26.31 34.61,-52.61 51.69,-78.92 -13.15,-74.76 -66.46,-128.3 -108.22,-187.83 -26.54,-166.38 58.15,-320.52 118.38,-469.59z"/>
   <path class="fil1" d="M3363.85 1687.2l304.46 51.11c-38.89,111.49 -100.74,196.31 -184.82,254.83 -84.45,58.15 -190.01,87.41 -316.31,87.41 -200.38,0 -348.91,-65.56 -444.84,-196.68 -75.93,-105.19 -114.08,-237.79 -114.08,-398.17 0,-191.12 50,-341.13 149.64,-449.28 99.63,-108.53 225.94,-162.6 378.54,-162.6 171.12,0 306.31,56.67 405.58,170.01 98.89,113.34 146.3,287.05 141.86,521.14l-762.26 0c2.22,90.38 26.67,160.75 73.71,211.12 46.67,50.37 105.19,75.56 174.82,75.56 47.78,0 87.78,-12.97 120.01,-38.89 32.6,-25.93 57.04,-67.78 73.71,-125.56zm17.78 -308.9c-2.22,-88.53 -24.82,-155.94 -68.15,-201.86 -43.33,-46.3 -95.93,-69.26 -158.16,-69.26 -66.3,0 -121.11,24.45 -164.45,72.97 -43.33,48.52 -64.45,114.82 -63.71,198.16l454.47 0zm522.62 746.7l348.91 42.22c5.92,41.11 19.26,69.26 40,84.82 29.26,21.85 74.82,32.97 137.04,32.97 79.63,0 139.27,-11.85 179.27,-35.93 26.67,-15.93 47.04,-41.48 60.75,-77.04 9.26,-25.18 14.07,-72.23 14.07,-140.01l1.48 -168.53c-91.86,125.56 -207.42,188.16 -346.68,188.16 -154.83,0 -277.79,-65.56 -368.17,-196.31 -71.11,-103.34 -106.67,-232.24 -106.67,-385.95 0,-193.34 46.67,-340.76 139.64,-442.61 92.97,-101.86 208.9,-152.97 347.43,-152.97 142.6,0 260.38,62.6 352.98,187.79l0 -163.34 284.46 0 0 1034.13c0,135.93 -11.11,237.79 -33.71,304.83 -22.22,67.41 -53.71,120.01 -94.45,158.53 -40.37,38.15 -94.45,68.52 -162.23,90 -67.78,21.85 -153.34,32.6 -256.68,32.6 -195.56,0 -334.09,-33.71 -415.95,-100.74 -81.86,-67.41 -122.6,-152.23 -122.6,-255.57 0,-10 0.37,-22.59 1.11,-37.04zm273.35 -673.37c0,122.23 23.7,211.49 70.75,268.16 47.41,56.67 105.93,85.19 175.19,85.19 74.08,0 137.04,-29.26 188.16,-87.41 51.48,-58.15 77.04,-144.08 77.04,-258.16 0,-119.26 -24.45,-207.79 -73.71,-265.57 -48.89,-57.78 -111.12,-86.67 -186.31,-86.67 -72.97,0 -132.97,28.52 -180.38,85.19 -47.04,56.67 -70.75,142.97 -70.75,259.27zm1084.13 673.37l348.91 42.22c5.92,41.11 19.26,69.26 40,84.82 29.26,21.85 74.82,32.97 137.04,32.97 79.63,0 139.27,-11.85 179.27,-35.93 26.67,-15.93 47.04,-41.48 60.75,-77.04 9.26,-25.18 14.07,-72.23 14.07,-140.01l1.48 -168.53c-91.86,125.56 -207.42,188.16 -346.68,188.16 -154.83,0 -277.79,-65.56 -368.17,-196.31 -71.11,-103.34 -106.67,-232.24 -106.67,-385.95 0,-193.34 46.67,-340.76 139.64,-442.61 92.97,-101.86 208.9,-152.97 347.43,-152.97 142.6,0 260.38,62.6 352.98,187.79l0 -163.34 284.46 0 0 1034.13c0,135.93 -11.11,237.79 -33.71,304.83 -22.22,67.41 -53.71,120.01 -94.45,158.53 -40.37,38.15 -94.45,68.52 -162.23,90 -67.78,21.85 -153.34,32.6 -256.68,32.6 -195.56,0 -334.09,-33.71 -415.95,-100.74 -81.86,-67.41 -122.6,-152.23 -122.6,-255.57 0,-10 0.37,-22.59 1.11,-37.04zm273.35 -673.37c0,122.23 23.7,211.49 70.75,268.16 47.41,56.67 105.93,85.19 175.19,85.19 74.08,0 137.04,-29.26 188.16,-87.41 51.48,-58.15 77.04,-144.08 77.04,-258.16 0,-119.26 -24.45,-207.79 -73.71,-265.57 -48.89,-57.78 -111.12,-86.67 -186.31,-86.67 -72.97,0 -132.97,28.52 -180.38,85.19 -47.04,56.67 -70.75,142.97 -70.75,259.27z"/>
  </g>
 </g>
</svg>
