<?xml version="1.0" encoding="UTF-8" ?>
<!DOCTYPE svg PUBLIC "-//W3C//DTD SVG 1.1//EN" "http://www.w3.org/Graphics/SVG/1.1/DTD/svg11.dtd">
<svg width="1352pt" height="342pt" viewBox="0 0 1352 342" version="1.1" xmlns="http://www.w3.org/2000/svg">
<g id="#000000ff">
<path fill="#000000" opacity="1.00" d=" M 365.75 0.00 L 371.75 0.00 C 371.82 113.12 371.61 226.25 371.85 339.38 C 369.82 339.42 367.79 339.60 365.76 339.48 C 365.74 226.32 365.75 113.16 365.75 0.00 Z" />
<path fill="#000000" opacity="1.00" d=" M 422.69 1.51 C 443.32 1.20 463.98 1.46 484.62 1.38 C 484.63 60.26 484.62 119.13 484.62 178.01 C 484.27 199.28 485.51 221.21 493.99 241.01 C 499.86 254.97 510.12 267.25 523.56 274.43 C 540.69 283.74 560.83 285.50 579.97 284.09 C 597.07 282.77 614.46 277.16 627.16 265.22 C 639.61 253.69 646.59 237.44 649.93 221.05 C 652.54 208.52 653.24 195.68 653.12 182.92 C 653.13 122.40 653.10 61.88 653.14 1.37 C 673.41 1.37 693.68 1.41 713.95 1.35 C 714.07 58.89 713.97 116.44 714.00 173.98 C 714.19 193.02 714.11 212.21 710.32 230.96 C 706.62 250.25 699.58 269.11 688.22 285.23 C 677.82 300.06 663.90 312.37 647.99 321.02 C 617.00 337.83 580.47 340.86 545.91 337.68 C 527.37 335.76 508.94 331.15 492.29 322.65 C 471.99 312.45 454.66 296.35 443.22 276.71 C 428.58 251.80 423.29 222.54 422.77 193.96 C 422.68 129.81 422.84 65.66 422.69 1.51 Z" />
<path fill="#000000" opacity="1.00" d=" M 734.01 1.33 C 828.02 1.42 922.03 1.38 1016.04 1.35 C 1016.22 18.82 1016.10 36.29 1016.10 53.75 C 979.36 53.76 942.62 53.73 905.89 53.76 C 905.86 147.17 905.88 240.58 905.88 333.99 C 885.25 334.01 864.63 334.00 844.00 334.00 C 843.99 240.58 844.01 147.17 843.99 53.76 C 807.29 53.73 770.59 53.76 733.89 53.75 C 733.95 36.28 733.70 18.80 734.01 1.33 Z" />
<path fill="#000000" opacity="1.00" d=" M 1038.59 1.45 C 1055.56 1.29 1072.54 1.40 1089.52 1.39 C 1150.59 76.39 1211.62 151.43 1272.76 226.37 C 1272.72 151.40 1272.79 76.42 1272.73 1.44 C 1293.15 1.26 1313.57 1.47 1334.00 1.34 C 1334.30 52.89 1334.04 104.47 1334.13 156.03 C 1334.12 215.35 1334.14 274.67 1334.12 333.99 C 1317.13 334.01 1300.14 334.00 1283.16 334.00 C 1222.10 259.02 1161.03 184.04 1099.98 109.05 C 1100.02 184.03 1099.99 259.01 1100.00 334.00 C 1079.54 334.00 1059.08 334.01 1038.63 333.99 C 1038.59 223.15 1038.67 112.30 1038.59 1.45 Z" />
<path fill="#000000" opacity="1.00" d=" M 13.04 4.08 C 32.41 4.05 51.78 4.07 71.15 4.07 C 70.39 38.09 93.67 70.47 125.35 82.16 C 125.40 56.23 125.35 30.30 125.37 4.37 C 144.70 4.42 164.04 4.27 183.36 4.45 C 183.29 30.34 183.34 56.22 183.34 82.11 C 204.09 74.68 221.15 58.26 230.41 38.38 C 235.43 27.67 237.55 15.83 237.79 4.07 C 257.02 4.07 276.24 4.06 295.47 4.07 C 295.88 30.21 288.58 56.44 274.46 78.46 C 258.85 102.88 236.24 123.20 209.33 134.33 C 202.30 137.35 194.95 139.54 187.58 141.54 C 223.54 141.68 259.51 141.53 295.48 141.61 C 295.49 160.85 295.50 180.10 295.48 199.34 C 259.83 199.34 224.19 199.39 188.55 199.32 C 196.61 201.71 204.70 204.09 212.35 207.64 C 242.09 220.83 266.45 245.09 281.18 273.97 C 290.99 293.29 295.71 315.05 295.52 336.68 C 276.18 336.82 256.84 336.74 237.49 336.72 C 237.55 319.40 232.32 302.01 221.97 288.05 C 212.46 274.62 198.87 264.21 183.44 258.50 C 183.19 284.50 183.39 310.51 183.34 336.51 C 164.01 336.47 144.69 336.72 125.37 336.75 C 125.35 310.69 125.41 284.62 125.34 258.56 C 93.48 270.07 70.36 302.73 71.15 336.76 C 51.78 336.74 32.42 336.75 13.06 336.75 C 12.87 309.60 20.50 282.32 35.73 259.75 C 55.23 230.12 85.70 207.55 120.42 199.45 C 84.64 199.20 48.86 199.45 13.08 199.33 C 13.09 180.09 13.08 160.85 13.08 141.61 C 49.16 141.58 85.26 141.57 121.32 141.62 C 89.91 134.34 61.84 115.21 42.26 89.75 C 22.99 65.67 12.78 34.87 13.04 4.08 Z" />
</g>
</svg>
