<?xml version="1.0" encoding="UTF-8"?>
<!DOCTYPE svg PUBLIC "-//W3C//DTD SVG 1.1//EN" "http://www.w3.org/Graphics/SVG/1.1/DTD/svg11.dtd">
<!-- Creator: CorelDRAW 2019 (64-Bit) -->
<svg xmlns="http://www.w3.org/2000/svg" xml:space="preserve" width="98.0619mm" height="40.1133mm" version="1.1" style="shape-rendering:geometricPrecision; text-rendering:geometricPrecision; image-rendering:optimizeQuality; fill-rule:evenodd; clip-rule:evenodd"
viewBox="0 0 2349.84 961.23"
 xmlns:xlink="http://www.w3.org/1999/xlink"
 xmlns:xodm="http://www.corel.com/coreldraw/odm/2003">
 <defs>
  <style type="text/css">
   <![CDATA[
    .fil1 {fill:#201E1E;fill-rule:nonzero}
    .fil0 {fill:#FFCF01;fill-rule:nonzero}
   ]]>
  </style>
 </defs>
 <g id="__x0023_Layer_x0020_1">
  <metadata id="CorelCorpID_0Corel-Layer"/>
  <g id="_1030623664">
   <path class="fil0" d="M288.06 13.38c43.64,-25.66 98.6,-9.84 141.92,9.3 101.69,61.23 158.67,171.14 203.16,277.1 14.34,46.35 28.14,93.09 37.52,140.76 15.19,66.04 13.33,134.41 12.64,201.76 0.31,57.12 -21.94,110.84 -43.87,162.54 -40.46,75.8 -115.96,131.54 -200.45,147.43 -101.54,18.52 -215.02,11.24 -301.67,-50 -67.59,-45.04 -105.34,-122.39 -123.4,-199.44 -11.47,-58.06 -17.13,-117.66 -12.01,-176.8 4.5,-33.87 10.85,-67.51 16.2,-101.23 6.51,-22.79 11.94,-45.89 18.29,-68.75 30.15,-88.52 64.96,-178.12 128.13,-248.81 26.74,-37.13 62.94,-65.65 102,-88.75 5.43,-1.32 16.12,-3.88 21.55,-5.12zm157.2 145.18l0 0c-20.23,50.07 -48.68,101.85 -39.77,157.74 14.03,19.99 31.94,37.98 36.35,63.09 -5.73,8.84 -11.55,17.67 -17.36,26.51 -38.83,-17.67 -81.54,-28.91 -123.71,-15.73 20.54,0.77 41.16,-0.23 61.62,1.86 39.3,16.43 72.01,44.57 105.57,70.23 -1.63,31.7 -19.3,59.22 -26.59,89.6 4.8,-0.31 14.42,-1.01 19.22,-1.32 -13.8,44.96 -53.79,80.15 -51.78,129.99 12.32,-52.86 46.27,-95.65 70.92,-142.78 -5.11,-0.85 -15.42,-2.56 -20.62,-3.41 11.16,-25.66 22.94,-51.16 31.55,-77.82 -17.05,-10.39 -34.42,-20.23 -52.01,-29.61 3.1,-25.66 15.42,-51.7 6.59,-77.36 -5.2,-17.13 -15.89,-31.78 -25.89,-46.43 -7.98,-50.54 20.23,-95.65 25.89,-144.56z"/>
   <path class="fil1" d="M445.26 158.56c-5.66,48.91 -33.87,94.02 -25.89,144.56 10,14.65 20.69,29.3 25.89,46.43 8.84,25.66 -3.49,51.7 -6.59,77.36 17.59,9.38 34.96,19.22 52.01,29.61 -8.6,26.67 -20.39,52.16 -31.55,77.82 5.2,0.85 15.5,2.56 20.62,3.41 -24.65,47.13 -58.6,89.92 -70.92,142.78 -2.01,-49.84 37.98,-85.03 51.78,-129.99 -4.81,0.31 -14.42,1.01 -19.22,1.32 7.29,-30.38 24.96,-57.9 26.59,-89.6 -33.56,-25.66 -66.27,-53.79 -105.57,-70.23 -20.46,-2.09 -41.08,-1.09 -61.62,-1.86 42.16,-13.18 84.87,-1.94 123.71,15.73 5.81,-8.84 11.63,-17.67 17.36,-26.51 -4.42,-25.12 -22.32,-43.1 -36.35,-63.09 -8.91,-55.89 19.53,-107.67 39.77,-157.74z"/>
   <path class="fil1" d="M1085.83 589.28l129.04 21.66c-16.48,47.25 -42.7,83.2 -78.33,108 -35.79,24.65 -80.53,37.05 -134.06,37.05 -84.93,0 -147.88,-27.79 -188.53,-83.36 -32.18,-44.58 -48.35,-100.78 -48.35,-168.76 0,-81 21.19,-144.58 63.42,-190.42 42.23,-46 95.76,-68.92 160.43,-68.92 72.53,0 129.82,24.02 171.89,72.06 41.91,48.04 62.01,121.66 60.13,220.87l-323.07 0c0.94,38.3 11.3,68.13 31.24,89.48 19.78,21.35 44.58,32.03 74.09,32.03 20.25,0 37.21,-5.5 50.86,-16.48 13.81,-10.99 24.18,-28.73 31.24,-53.22zm7.54 -130.92c-0.94,-37.52 -10.52,-66.09 -28.88,-85.56 -18.37,-19.62 -40.66,-29.35 -67.03,-29.35 -28.1,0 -51.33,10.36 -69.7,30.92 -18.37,20.57 -27.32,48.67 -27,83.99l192.62 0zm221.5 316.47l147.88 17.9c2.51,17.43 8.16,29.36 16.95,35.95 12.4,9.26 31.71,13.97 58.08,13.97 33.75,0 59.03,-5.02 75.98,-15.23 11.3,-6.75 19.94,-17.58 25.75,-32.65 3.92,-10.68 5.96,-30.61 5.96,-59.34l0.63 -71.43c-38.93,53.22 -87.91,79.75 -146.94,79.75 -65.62,0 -117.74,-27.78 -156.04,-83.2 -30.14,-43.8 -45.21,-98.43 -45.21,-163.58 0,-81.95 19.78,-144.42 59.18,-187.59 39.4,-43.17 88.54,-64.83 147.25,-64.83 60.44,0 110.36,26.53 149.6,79.59l0 -69.23 120.56 0 0 438.29c0,57.61 -4.71,100.78 -14.29,129.19 -9.42,28.57 -22.76,50.86 -40.03,67.19 -17.11,16.17 -40.03,29.04 -68.76,38.15 -28.73,9.26 -64.99,13.81 -108.79,13.81 -82.89,0 -141.6,-14.29 -176.29,-42.7 -34.69,-28.57 -51.96,-64.52 -51.96,-108.32 0,-4.24 0.16,-9.58 0.47,-15.7zm115.85 -285.39c0,51.81 10.05,89.64 29.98,113.66 20.09,24.02 44.9,36.1 74.25,36.1 31.4,0 58.08,-12.4 79.75,-37.05 21.82,-24.64 32.65,-61.06 32.65,-109.41 0,-50.55 -10.36,-88.07 -31.24,-112.56 -20.72,-24.49 -47.09,-36.73 -78.96,-36.73 -30.93,0 -56.36,12.09 -76.45,36.1 -19.94,24.02 -29.98,60.59 -29.98,109.89zm459.48 285.39l147.88 17.9c2.51,17.43 8.16,29.36 16.95,35.95 12.4,9.26 31.71,13.97 58.08,13.97 33.75,0 59.03,-5.02 75.98,-15.23 11.3,-6.75 19.94,-17.58 25.75,-32.65 3.92,-10.68 5.96,-30.61 5.96,-59.34l0.63 -71.43c-38.93,53.22 -87.91,79.75 -146.94,79.75 -65.62,0 -117.73,-27.78 -156.04,-83.2 -30.14,-43.8 -45.21,-98.43 -45.21,-163.58 0,-81.95 19.78,-144.42 59.18,-187.59 39.4,-43.17 88.54,-64.83 147.25,-64.83 60.44,0 110.36,26.53 149.6,79.59l0 -69.23 120.56 0 0 438.29c0,57.61 -4.71,100.78 -14.28,129.19 -9.42,28.57 -22.76,50.86 -40.03,67.19 -17.11,16.17 -40.03,29.04 -68.76,38.15 -28.73,9.26 -64.99,13.81 -108.79,13.81 -82.89,0 -141.6,-14.29 -176.29,-42.7 -34.69,-28.57 -51.96,-64.52 -51.96,-108.32 0,-4.24 0.16,-9.58 0.47,-15.7zm115.85 -285.39c0,51.81 10.05,89.64 29.98,113.66 20.09,24.02 44.9,36.1 74.25,36.1 31.4,0 58.08,-12.4 79.75,-37.05 21.82,-24.64 32.65,-61.06 32.65,-109.41 0,-50.55 -10.36,-88.07 -31.24,-112.56 -20.72,-24.49 -47.1,-36.73 -78.96,-36.73 -30.93,0 -56.36,12.09 -76.45,36.1 -19.94,24.02 -29.98,60.59 -29.98,109.89z"/>
  </g>
 </g>
</svg>
